<?xml version="1.0" encoding="UTF-8" standalone="no"?>
<!DOCTYPE svg PUBLIC "-//W3C//DTD SVG 1.1//EN"
 "http://www.w3.org/Graphics/SVG/1.1/DTD/svg11.dtd">
<!-- Generated by graphviz version 2.44.1 (20200629.0846)
 -->
<!-- Pages: 1 -->
<svg width="2786pt" height="548pt"
 viewBox="0.00 0.00 2785.50 548.00" xmlns="http://www.w3.org/2000/svg" xmlns:xlink="http://www.w3.org/1999/xlink">
<g id="graph0" class="graph" transform="scale(1 1) rotate(0) translate(4 544)">
<polygon fill="white" stroke="transparent" points="-4,4 -4,-544 2781.5,-544 2781.5,4 -4,4"/>
<!-- [root] aws_ebs_volume.secondary (expand) -->
<g id="node1" class="node">
<title>[root] aws_ebs_volume.secondary (expand)</title>
<polygon fill="none" stroke="black" points="169,-324 0,-324 0,-288 169,-288 169,-324"/>
<text text-anchor="middle" x="84.5" y="-302.3" font-family="Times,serif" font-size="14.00">aws_ebs_volume.secondary</text>
</g>
<!-- [root] provider[&quot;registry.terraform.io/hashicorp/aws&quot;] -->
<g id="node14" class="node">
<title>[root] provider[&quot;registry.terraform.io/hashicorp/aws&quot;]</title>
<polygon fill="none" stroke="black" points="378.5,-108 125.96,-90 378.5,-72 631.04,-90 378.5,-108"/>
<text text-anchor="middle" x="378.5" y="-86.3" font-family="Times,serif" font-size="14.00">provider[&quot;registry.terraform.io/hashicorp/aws&quot;]</text>
</g>
<!-- [root] aws_ebs_volume.secondary (expand)&#45;&gt;[root] provider[&quot;registry.terraform.io/hashicorp/aws&quot;] -->
<g id="edge1" class="edge">
<title>[root] aws_ebs_volume.secondary (expand)&#45;&gt;[root] provider[&quot;registry.terraform.io/hashicorp/aws&quot;]</title>
<path fill="none" stroke="black" d="M78.93,-287.91C69.53,-255.45 54.82,-184.51 90.5,-144 111.07,-120.64 177.86,-107.5 241.94,-100.15"/>
<polygon fill="black" stroke="black" points="242.63,-103.6 252.19,-99.02 241.87,-96.64 242.63,-103.6"/>
</g>
<!-- [root] var.availability_zone -->
<g id="node16" class="node">
<title>[root] var.availability_zone</title>
<polygon fill="none" stroke="black" points="223.5,-180 99.5,-180 99.5,-144 229.5,-144 229.5,-174 223.5,-180"/>
<polyline fill="none" stroke="black" points="223.5,-180 223.5,-174 "/>
<polyline fill="none" stroke="black" points="229.5,-174 223.5,-174 "/>
<text text-anchor="middle" x="164.5" y="-158.3" font-family="Times,serif" font-size="14.00">var.availability_zone</text>
</g>
<!-- [root] aws_ebs_volume.secondary (expand)&#45;&gt;[root] var.availability_zone -->
<g id="edge2" class="edge">
<title>[root] aws_ebs_volume.secondary (expand)&#45;&gt;[root] var.availability_zone</title>
<path fill="none" stroke="black" d="M84.98,-287.77C86.19,-268.94 90.26,-238.45 103.5,-216 110.14,-204.75 120.01,-194.67 129.9,-186.4"/>
<polygon fill="black" stroke="black" points="132.1,-189.12 137.76,-180.17 127.75,-183.64 132.1,-189.12"/>
</g>
<!-- [root] aws_instance.ubuntu (expand) -->
<g id="node2" class="node">
<title>[root] aws_instance.ubuntu (expand)</title>
<polygon fill="none" stroke="black" points="1374.5,-324 1244.5,-324 1244.5,-288 1374.5,-288 1374.5,-324"/>
<text text-anchor="middle" x="1309.5" y="-302.3" font-family="Times,serif" font-size="14.00">aws_instance.ubuntu</text>
</g>
<!-- [root] aws_key_pair.ec2 (expand) -->
<g id="node4" class="node">
<title>[root] aws_key_pair.ec2 (expand)</title>
<polygon fill="none" stroke="black" points="1559,-252 1446,-252 1446,-216 1559,-216 1559,-252"/>
<text text-anchor="middle" x="1502.5" y="-230.3" font-family="Times,serif" font-size="14.00">aws_key_pair.ec2</text>
</g>
<!-- [root] aws_instance.ubuntu (expand)&#45;&gt;[root] aws_key_pair.ec2 (expand) -->
<g id="edge3" class="edge">
<title>[root] aws_instance.ubuntu (expand)&#45;&gt;[root] aws_key_pair.ec2 (expand)</title>
<path fill="none" stroke="black" d="M1356.71,-287.88C1383.57,-278.14 1417.38,-265.87 1445.68,-255.61"/>
<polygon fill="black" stroke="black" points="1447.23,-258.77 1455.44,-252.07 1444.85,-252.19 1447.23,-258.77"/>
</g>
<!-- [root] aws_security_group.allow_ssh_http (expand) -->
<g id="node7" class="node">
<title>[root] aws_security_group.allow_ssh_http (expand)</title>
<polygon fill="none" stroke="black" points="703,-252 492,-252 492,-216 703,-216 703,-252"/>
<text text-anchor="middle" x="597.5" y="-230.3" font-family="Times,serif" font-size="14.00">aws_security_group.allow_ssh_http</text>
</g>
<!-- [root] aws_instance.ubuntu (expand)&#45;&gt;[root] aws_security_group.allow_ssh_http (expand) -->
<g id="edge4" class="edge">
<title>[root] aws_instance.ubuntu (expand)&#45;&gt;[root] aws_security_group.allow_ssh_http (expand)</title>
<path fill="none" stroke="black" d="M1244.33,-300.5C1136.13,-292.75 912.37,-275.54 713.13,-252.16"/>
<polygon fill="black" stroke="black" points="713.4,-248.66 703.06,-250.97 712.58,-255.62 713.4,-248.66"/>
</g>
<!-- [root] aws_subnet.main_public (expand) -->
<g id="node8" class="node">
<title>[root] aws_subnet.main_public (expand)</title>
<polygon fill="none" stroke="black" points="264.5,-252 112.5,-252 112.5,-216 264.5,-216 264.5,-252"/>
<text text-anchor="middle" x="188.5" y="-230.3" font-family="Times,serif" font-size="14.00">aws_subnet.main_public</text>
</g>
<!-- [root] aws_instance.ubuntu (expand)&#45;&gt;[root] aws_subnet.main_public (expand) -->
<g id="edge5" class="edge">
<title>[root] aws_instance.ubuntu (expand)&#45;&gt;[root] aws_subnet.main_public (expand)</title>
<path fill="none" stroke="black" d="M1244.3,-302.92C1050.98,-296.54 482.02,-276.32 275.04,-252.05"/>
<polygon fill="black" stroke="black" points="275.22,-248.55 264.87,-250.82 274.38,-255.5 275.22,-248.55"/>
</g>
<!-- [root] data.template_cloudinit_config.init_scripts (expand) -->
<g id="node11" class="node">
<title>[root] data.template_cloudinit_config.init_scripts (expand)</title>
<polygon fill="none" stroke="black" points="2370,-252 2121,-252 2121,-216 2370,-216 2370,-252"/>
<text text-anchor="middle" x="2245.5" y="-230.3" font-family="Times,serif" font-size="14.00">data.template_cloudinit_config.init_scripts</text>
</g>
<!-- [root] aws_instance.ubuntu (expand)&#45;&gt;[root] data.template_cloudinit_config.init_scripts (expand) -->
<g id="edge6" class="edge">
<title>[root] aws_instance.ubuntu (expand)&#45;&gt;[root] data.template_cloudinit_config.init_scripts (expand)</title>
<path fill="none" stroke="black" d="M1374.66,-302.05C1509.87,-295.65 1830.93,-278.91 2110.58,-252.15"/>
<polygon fill="black" stroke="black" points="2111.31,-255.6 2120.93,-251.16 2110.64,-248.63 2111.31,-255.6"/>
</g>
<!-- [root] var.aws_ami -->
<g id="node17" class="node">
<title>[root] var.aws_ami</title>
<polygon fill="none" stroke="black" points="1657.5,-252 1577.5,-252 1577.5,-216 1663.5,-216 1663.5,-246 1657.5,-252"/>
<polyline fill="none" stroke="black" points="1657.5,-252 1657.5,-246 "/>
<polyline fill="none" stroke="black" points="1663.5,-246 1657.5,-246 "/>
<text text-anchor="middle" x="1620.5" y="-230.3" font-family="Times,serif" font-size="14.00">var.aws_ami</text>
</g>
<!-- [root] aws_instance.ubuntu (expand)&#45;&gt;[root] var.aws_ami -->
<g id="edge10" class="edge">
<title>[root] aws_instance.ubuntu (expand)&#45;&gt;[root] var.aws_ami</title>
<path fill="none" stroke="black" d="M1374.64,-293.8C1424.94,-284.67 1496.4,-270.63 1567.46,-252.12"/>
<polygon fill="black" stroke="black" points="1568.71,-255.42 1577.48,-249.48 1566.92,-248.65 1568.71,-255.42"/>
</g>
<!-- [root] var.aws_ec2_username -->
<g id="node19" class="node">
<title>[root] var.aws_ec2_username</title>
<polygon fill="none" stroke="black" points="1819,-252 1682,-252 1682,-216 1825,-216 1825,-246 1819,-252"/>
<polyline fill="none" stroke="black" points="1819,-252 1819,-246 "/>
<polyline fill="none" stroke="black" points="1825,-246 1819,-246 "/>
<text text-anchor="middle" x="1753.5" y="-230.3" font-family="Times,serif" font-size="14.00">var.aws_ec2_username</text>
</g>
<!-- [root] aws_instance.ubuntu (expand)&#45;&gt;[root] var.aws_ec2_username -->
<g id="edge11" class="edge">
<title>[root] aws_instance.ubuntu (expand)&#45;&gt;[root] var.aws_ec2_username</title>
<path fill="none" stroke="black" d="M1374.61,-296.73C1445.28,-287.47 1561.66,-271.42 1672.02,-252.02"/>
<polygon fill="black" stroke="black" points="1672.76,-255.45 1681.99,-250.26 1671.54,-248.55 1672.76,-255.45"/>
</g>
<!-- [root] var.instance_type -->
<g id="node24" class="node">
<title>[root] var.instance_type</title>
<polygon fill="none" stroke="black" points="1948,-252 1843,-252 1843,-216 1954,-216 1954,-246 1948,-252"/>
<polyline fill="none" stroke="black" points="1948,-252 1948,-246 "/>
<polyline fill="none" stroke="black" points="1954,-246 1948,-246 "/>
<text text-anchor="middle" x="1898.5" y="-230.3" font-family="Times,serif" font-size="14.00">var.instance_type</text>
</g>
<!-- [root] aws_instance.ubuntu (expand)&#45;&gt;[root] var.instance_type -->
<g id="edge12" class="edge">
<title>[root] aws_instance.ubuntu (expand)&#45;&gt;[root] var.instance_type</title>
<path fill="none" stroke="black" d="M1374.62,-301.76C1472.42,-296.16 1663.03,-282.41 1832.9,-252.14"/>
<polygon fill="black" stroke="black" points="1833.55,-255.58 1842.77,-250.36 1832.31,-248.69 1833.55,-255.58"/>
</g>
<!-- [root] var.private_key_path -->
<g id="node27" class="node">
<title>[root] var.private_key_path</title>
<polygon fill="none" stroke="black" points="2097,-252 1972,-252 1972,-216 2103,-216 2103,-246 2097,-252"/>
<polyline fill="none" stroke="black" points="2097,-252 2097,-246 "/>
<polyline fill="none" stroke="black" points="2103,-246 2097,-246 "/>
<text text-anchor="middle" x="2037.5" y="-230.3" font-family="Times,serif" font-size="14.00">var.private_key_path</text>
</g>
<!-- [root] aws_instance.ubuntu (expand)&#45;&gt;[root] var.private_key_path -->
<g id="edge13" class="edge">
<title>[root] aws_instance.ubuntu (expand)&#45;&gt;[root] var.private_key_path</title>
<path fill="none" stroke="black" d="M1374.84,-302.84C1491.17,-298.31 1741.87,-285.45 1961.71,-252.16"/>
<polygon fill="black" stroke="black" points="1962.47,-255.58 1971.83,-250.61 1961.41,-248.66 1962.47,-255.58"/>
</g>
<!-- [root] local.name_prefix (expand) -->
<g id="node29" class="node">
<title>[root] local.name_prefix (expand)</title>
<ellipse fill="none" stroke="black" cx="851.5" cy="-234" rx="130.78" ry="18"/>
<text text-anchor="middle" x="851.5" y="-230.3" font-family="Times,serif" font-size="14.00">[root] local.name_prefix (expand)</text>
</g>
<!-- [root] aws_instance.ubuntu (expand)&#45;&gt;[root] local.name_prefix (expand) -->
<g id="edge7" class="edge">
<title>[root] aws_instance.ubuntu (expand)&#45;&gt;[root] local.name_prefix (expand)</title>
<path fill="none" stroke="black" d="M1244.37,-295.05C1166.25,-283.11 1034.71,-263 945.57,-249.38"/>
<polygon fill="black" stroke="black" points="945.87,-245.88 935.46,-247.83 944.81,-252.8 945.87,-245.88"/>
</g>
<!-- [root] provisioner.file -->
<g id="node30" class="node">
<title>[root] provisioner.file</title>
<ellipse fill="none" stroke="black" cx="1086.5" cy="-234" rx="86.38" ry="18"/>
<text text-anchor="middle" x="1086.5" y="-230.3" font-family="Times,serif" font-size="14.00">[root] provisioner.file</text>
</g>
<!-- [root] aws_instance.ubuntu (expand)&#45;&gt;[root] provisioner.file -->
<g id="edge8" class="edge">
<title>[root] aws_instance.ubuntu (expand)&#45;&gt;[root] provisioner.file</title>
<path fill="none" stroke="black" d="M1255.23,-287.97C1220.97,-277.21 1176.81,-263.35 1142.27,-252.51"/>
<polygon fill="black" stroke="black" points="1142.93,-249.04 1132.34,-249.39 1140.83,-255.72 1142.93,-249.04"/>
</g>
<!-- [root] provisioner.remote&#45;exec -->
<g id="node31" class="node">
<title>[root] provisioner.remote&#45;exec</title>
<ellipse fill="none" stroke="black" cx="1309.5" cy="-234" rx="118.88" ry="18"/>
<text text-anchor="middle" x="1309.5" y="-230.3" font-family="Times,serif" font-size="14.00">[root] provisioner.remote&#45;exec</text>
</g>
<!-- [root] aws_instance.ubuntu (expand)&#45;&gt;[root] provisioner.remote&#45;exec -->
<g id="edge9" class="edge">
<title>[root] aws_instance.ubuntu (expand)&#45;&gt;[root] provisioner.remote&#45;exec</title>
<path fill="none" stroke="black" d="M1309.5,-287.7C1309.5,-279.98 1309.5,-270.71 1309.5,-262.11"/>
<polygon fill="black" stroke="black" points="1313,-262.1 1309.5,-252.1 1306,-262.1 1313,-262.1"/>
</g>
<!-- [root] aws_internet_gateway.main_gw (expand) -->
<g id="node3" class="node">
<title>[root] aws_internet_gateway.main_gw (expand)</title>
<polygon fill="none" stroke="black" points="474,-252 283,-252 283,-216 474,-216 474,-252"/>
<text text-anchor="middle" x="378.5" y="-230.3" font-family="Times,serif" font-size="14.00">aws_internet_gateway.main_gw</text>
</g>
<!-- [root] aws_vpc.main (expand) -->
<g id="node10" class="node">
<title>[root] aws_vpc.main (expand)</title>
<polygon fill="none" stroke="black" points="426,-180 331,-180 331,-144 426,-144 426,-180"/>
<text text-anchor="middle" x="378.5" y="-158.3" font-family="Times,serif" font-size="14.00">aws_vpc.main</text>
</g>
<!-- [root] aws_internet_gateway.main_gw (expand)&#45;&gt;[root] aws_vpc.main (expand) -->
<g id="edge14" class="edge">
<title>[root] aws_internet_gateway.main_gw (expand)&#45;&gt;[root] aws_vpc.main (expand)</title>
<path fill="none" stroke="black" d="M378.5,-215.7C378.5,-207.98 378.5,-198.71 378.5,-190.11"/>
<polygon fill="black" stroke="black" points="382,-190.1 378.5,-180.1 375,-190.1 382,-190.1"/>
</g>
<!-- [root] aws_key_pair.ec2 (expand)&#45;&gt;[root] provider[&quot;registry.terraform.io/hashicorp/aws&quot;] -->
<g id="edge15" class="edge">
<title>[root] aws_key_pair.ec2 (expand)&#45;&gt;[root] provider[&quot;registry.terraform.io/hashicorp/aws&quot;]</title>
<path fill="none" stroke="black" d="M1504.42,-215.87C1505.65,-195.33 1504.09,-161.49 1483.5,-144 1449.79,-115.36 892.21,-100.49 582.31,-94.41"/>
<polygon fill="black" stroke="black" points="582.37,-90.91 572.3,-94.21 582.23,-97.91 582.37,-90.91"/>
</g>
<!-- [root] var.public_key_path -->
<g id="node28" class="node">
<title>[root] var.public_key_path</title>
<polygon fill="none" stroke="black" points="1468,-180 1347,-180 1347,-144 1474,-144 1474,-174 1468,-180"/>
<polyline fill="none" stroke="black" points="1468,-180 1468,-174 "/>
<polyline fill="none" stroke="black" points="1474,-174 1468,-174 "/>
<text text-anchor="middle" x="1410.5" y="-158.3" font-family="Times,serif" font-size="14.00">var.public_key_path</text>
</g>
<!-- [root] aws_key_pair.ec2 (expand)&#45;&gt;[root] var.public_key_path -->
<g id="edge16" class="edge">
<title>[root] aws_key_pair.ec2 (expand)&#45;&gt;[root] var.public_key_path</title>
<path fill="none" stroke="black" d="M1479.76,-215.7C1468.06,-206.8 1453.64,-195.82 1440.99,-186.2"/>
<polygon fill="black" stroke="black" points="1443.06,-183.37 1432.98,-180.1 1438.82,-188.94 1443.06,-183.37"/>
</g>
<!-- [root] aws_route_table.main_public (expand) -->
<g id="node5" class="node">
<title>[root] aws_route_table.main_public (expand)</title>
<polygon fill="none" stroke="black" points="685,-324 508,-324 508,-288 685,-288 685,-324"/>
<text text-anchor="middle" x="596.5" y="-302.3" font-family="Times,serif" font-size="14.00">aws_route_table.main_public</text>
</g>
<!-- [root] aws_route_table.main_public (expand)&#45;&gt;[root] aws_internet_gateway.main_gw (expand) -->
<g id="edge17" class="edge">
<title>[root] aws_route_table.main_public (expand)&#45;&gt;[root] aws_internet_gateway.main_gw (expand)</title>
<path fill="none" stroke="black" d="M543.45,-287.97C512.73,-278.1 473.86,-265.62 441.58,-255.25"/>
<polygon fill="black" stroke="black" points="442.38,-251.84 431.79,-252.11 440.24,-258.5 442.38,-251.84"/>
</g>
<!-- [root] aws_route_table_association.main_public&#45;1c (expand) -->
<g id="node6" class="node">
<title>[root] aws_route_table_association.main_public&#45;1c (expand)</title>
<polygon fill="none" stroke="black" points="736,-396 475,-396 475,-360 736,-360 736,-396"/>
<text text-anchor="middle" x="605.5" y="-374.3" font-family="Times,serif" font-size="14.00">aws_route_table_association.main_public&#45;1c</text>
</g>
<!-- [root] aws_route_table_association.main_public&#45;1c (expand)&#45;&gt;[root] aws_route_table.main_public (expand) -->
<g id="edge18" class="edge">
<title>[root] aws_route_table_association.main_public&#45;1c (expand)&#45;&gt;[root] aws_route_table.main_public (expand)</title>
<path fill="none" stroke="black" d="M603.28,-359.7C602.28,-351.98 601.09,-342.71 599.99,-334.11"/>
<polygon fill="black" stroke="black" points="603.45,-333.58 598.7,-324.1 596.5,-334.47 603.45,-333.58"/>
</g>
<!-- [root] aws_route_table_association.main_public&#45;1c (expand)&#45;&gt;[root] aws_subnet.main_public (expand) -->
<g id="edge19" class="edge">
<title>[root] aws_route_table_association.main_public&#45;1c (expand)&#45;&gt;[root] aws_subnet.main_public (expand)</title>
<path fill="none" stroke="black" d="M570.2,-359.81C549.28,-349.55 522.3,-336.19 498.5,-324 468.06,-308.41 462.61,-299.77 430.5,-288 415.67,-282.57 338.18,-265.92 274.83,-252.71"/>
<polygon fill="black" stroke="black" points="275.29,-249.24 264.79,-250.63 273.87,-256.09 275.29,-249.24"/>
</g>
<!-- [root] aws_security_group.allow_ssh_http (expand)&#45;&gt;[root] aws_vpc.main (expand) -->
<g id="edge20" class="edge">
<title>[root] aws_security_group.allow_ssh_http (expand)&#45;&gt;[root] aws_vpc.main (expand)</title>
<path fill="none" stroke="black" d="M544.21,-215.97C511.36,-205.47 469.27,-192.01 435.72,-181.29"/>
<polygon fill="black" stroke="black" points="436.65,-177.91 426.06,-178.2 434.52,-184.58 436.65,-177.91"/>
</g>
<!-- [root] aws_subnet.main_public (expand)&#45;&gt;[root] aws_vpc.main (expand) -->
<g id="edge21" class="edge">
<title>[root] aws_subnet.main_public (expand)&#45;&gt;[root] aws_vpc.main (expand)</title>
<path fill="none" stroke="black" d="M234.98,-215.88C261.42,-206.14 294.7,-193.87 322.56,-183.61"/>
<polygon fill="black" stroke="black" points="324,-186.81 332.17,-180.07 321.58,-180.24 324,-186.81"/>
</g>
<!-- [root] aws_subnet.main_public (expand)&#45;&gt;[root] var.availability_zone -->
<g id="edge22" class="edge">
<title>[root] aws_subnet.main_public (expand)&#45;&gt;[root] var.availability_zone</title>
<path fill="none" stroke="black" d="M182.57,-215.7C179.89,-207.9 176.67,-198.51 173.7,-189.83"/>
<polygon fill="black" stroke="black" points="176.92,-188.43 170.36,-180.1 170.3,-190.7 176.92,-188.43"/>
</g>
<!-- [root] aws_volume_attachment.ebs_secondary (expand) -->
<g id="node9" class="node">
<title>[root] aws_volume_attachment.ebs_secondary (expand)</title>
<polygon fill="none" stroke="black" points="456.5,-396 220.5,-396 220.5,-360 456.5,-360 456.5,-396"/>
<text text-anchor="middle" x="338.5" y="-374.3" font-family="Times,serif" font-size="14.00">aws_volume_attachment.ebs_secondary</text>
</g>
<!-- [root] aws_volume_attachment.ebs_secondary (expand)&#45;&gt;[root] aws_ebs_volume.secondary (expand) -->
<g id="edge23" class="edge">
<title>[root] aws_volume_attachment.ebs_secondary (expand)&#45;&gt;[root] aws_ebs_volume.secondary (expand)</title>
<path fill="none" stroke="black" d="M276.69,-359.97C240.43,-349.97 194.44,-337.3 156.54,-326.85"/>
<polygon fill="black" stroke="black" points="157.16,-323.39 146.59,-324.11 155.3,-330.14 157.16,-323.39"/>
</g>
<!-- [root] aws_volume_attachment.ebs_secondary (expand)&#45;&gt;[root] aws_instance.ubuntu (expand) -->
<g id="edge24" class="edge">
<title>[root] aws_volume_attachment.ebs_secondary (expand)&#45;&gt;[root] aws_instance.ubuntu (expand)</title>
<path fill="none" stroke="black" d="M456.77,-360.89C459.71,-360.58 462.62,-360.28 465.5,-360 748.38,-332.22 1086.11,-316.15 1233.94,-309.96"/>
<polygon fill="black" stroke="black" points="1234.4,-313.44 1244.25,-309.53 1234.11,-306.45 1234.4,-313.44"/>
</g>
<!-- [root] var.aws_ebs_volume_name -->
<g id="node18" class="node">
<title>[root] var.aws_ebs_volume_name</title>
<polygon fill="none" stroke="black" points="416,-324 255,-324 255,-288 422,-288 422,-318 416,-324"/>
<polyline fill="none" stroke="black" points="416,-324 416,-318 "/>
<polyline fill="none" stroke="black" points="422,-318 416,-318 "/>
<text text-anchor="middle" x="338.5" y="-302.3" font-family="Times,serif" font-size="14.00">var.aws_ebs_volume_name</text>
</g>
<!-- [root] aws_volume_attachment.ebs_secondary (expand)&#45;&gt;[root] var.aws_ebs_volume_name -->
<g id="edge25" class="edge">
<title>[root] aws_volume_attachment.ebs_secondary (expand)&#45;&gt;[root] var.aws_ebs_volume_name</title>
<path fill="none" stroke="black" d="M338.5,-359.7C338.5,-351.98 338.5,-342.71 338.5,-334.11"/>
<polygon fill="black" stroke="black" points="342,-334.1 338.5,-324.1 335,-334.1 342,-334.1"/>
</g>
<!-- [root] aws_vpc.main (expand)&#45;&gt;[root] provider[&quot;registry.terraform.io/hashicorp/aws&quot;] -->
<g id="edge26" class="edge">
<title>[root] aws_vpc.main (expand)&#45;&gt;[root] provider[&quot;registry.terraform.io/hashicorp/aws&quot;]</title>
<path fill="none" stroke="black" d="M378.5,-143.7C378.5,-135.98 378.5,-126.71 378.5,-118.11"/>
<polygon fill="black" stroke="black" points="382,-118.1 378.5,-108.1 375,-118.1 382,-118.1"/>
</g>
<!-- [root] data.template_file.init_script (expand) -->
<g id="node12" class="node">
<title>[root] data.template_file.init_script (expand)</title>
<polygon fill="none" stroke="black" points="2173,-180 2000,-180 2000,-144 2173,-144 2173,-180"/>
<text text-anchor="middle" x="2086.5" y="-158.3" font-family="Times,serif" font-size="14.00">data.template_file.init_script</text>
</g>
<!-- [root] data.template_cloudinit_config.init_scripts (expand)&#45;&gt;[root] data.template_file.init_script (expand) -->
<g id="edge27" class="edge">
<title>[root] data.template_cloudinit_config.init_scripts (expand)&#45;&gt;[root] data.template_file.init_script (expand)</title>
<path fill="none" stroke="black" d="M2206.6,-215.88C2184.87,-206.31 2157.6,-194.3 2134.54,-184.15"/>
<polygon fill="black" stroke="black" points="2135.83,-180.89 2125.27,-180.07 2133.01,-187.3 2135.83,-180.89"/>
</g>
<!-- [root] data.template_file.mount_ebs_volume_script (expand) -->
<g id="node13" class="node">
<title>[root] data.template_file.mount_ebs_volume_script (expand)</title>
<polygon fill="none" stroke="black" points="2536,-180 2273,-180 2273,-144 2536,-144 2536,-180"/>
<text text-anchor="middle" x="2404.5" y="-158.3" font-family="Times,serif" font-size="14.00">data.template_file.mount_ebs_volume_script</text>
</g>
<!-- [root] data.template_cloudinit_config.init_scripts (expand)&#45;&gt;[root] data.template_file.mount_ebs_volume_script (expand) -->
<g id="edge28" class="edge">
<title>[root] data.template_cloudinit_config.init_scripts (expand)&#45;&gt;[root] data.template_file.mount_ebs_volume_script (expand)</title>
<path fill="none" stroke="black" d="M2284.4,-215.88C2306.13,-206.31 2333.4,-194.3 2356.46,-184.15"/>
<polygon fill="black" stroke="black" points="2357.99,-187.3 2365.73,-180.07 2355.17,-180.89 2357.99,-187.3"/>
</g>
<!-- [root] provider[&quot;registry.terraform.io/hashicorp/template&quot;] -->
<g id="node15" class="node">
<title>[root] provider[&quot;registry.terraform.io/hashicorp/template&quot;]</title>
<polygon fill="none" stroke="black" points="2086.5,-108 1809.67,-90 2086.5,-72 2363.33,-90 2086.5,-108"/>
<text text-anchor="middle" x="2086.5" y="-86.3" font-family="Times,serif" font-size="14.00">provider[&quot;registry.terraform.io/hashicorp/template&quot;]</text>
</g>
<!-- [root] data.template_file.init_script (expand)&#45;&gt;[root] provider[&quot;registry.terraform.io/hashicorp/template&quot;] -->
<g id="edge29" class="edge">
<title>[root] data.template_file.init_script (expand)&#45;&gt;[root] provider[&quot;registry.terraform.io/hashicorp/template&quot;]</title>
<path fill="none" stroke="black" d="M2086.5,-143.7C2086.5,-135.98 2086.5,-126.71 2086.5,-118.11"/>
<polygon fill="black" stroke="black" points="2090,-118.1 2086.5,-108.1 2083,-118.1 2090,-118.1"/>
</g>
<!-- [root] var.cloudinit_script_path -->
<g id="node21" class="node">
<title>[root] var.cloudinit_script_path</title>
<polygon fill="none" stroke="black" points="1785.5,-108 1639.5,-108 1639.5,-72 1791.5,-72 1791.5,-102 1785.5,-108"/>
<polyline fill="none" stroke="black" points="1785.5,-108 1785.5,-102 "/>
<polyline fill="none" stroke="black" points="1791.5,-102 1785.5,-102 "/>
<text text-anchor="middle" x="1715.5" y="-86.3" font-family="Times,serif" font-size="14.00">var.cloudinit_script_path</text>
</g>
<!-- [root] data.template_file.init_script (expand)&#45;&gt;[root] var.cloudinit_script_path -->
<g id="edge30" class="edge">
<title>[root] data.template_file.init_script (expand)&#45;&gt;[root] var.cloudinit_script_path</title>
<path fill="none" stroke="black" d="M1999.77,-145.26C1945.58,-135.34 1874.08,-122.12 1802.1,-108.3"/>
<polygon fill="black" stroke="black" points="1802.43,-104.79 1791.95,-106.34 1801.1,-111.67 1802.43,-104.79"/>
</g>
<!-- [root] data.template_file.mount_ebs_volume_script (expand)&#45;&gt;[root] provider[&quot;registry.terraform.io/hashicorp/template&quot;] -->
<g id="edge31" class="edge">
<title>[root] data.template_file.mount_ebs_volume_script (expand)&#45;&gt;[root] provider[&quot;registry.terraform.io/hashicorp/template&quot;]</title>
<path fill="none" stroke="black" d="M2327.12,-143.97C2274.89,-132.47 2206.55,-117.43 2156.05,-106.31"/>
<polygon fill="black" stroke="black" points="2156.72,-102.87 2146.2,-104.14 2155.22,-109.71 2156.72,-102.87"/>
</g>
<!-- [root] var.ebs_device_name_hack -->
<g id="node22" class="node">
<title>[root] var.ebs_device_name_hack</title>
<polygon fill="none" stroke="black" points="2771.5,-108 2611.5,-108 2611.5,-72 2777.5,-72 2777.5,-102 2771.5,-108"/>
<polyline fill="none" stroke="black" points="2771.5,-108 2771.5,-102 "/>
<polyline fill="none" stroke="black" points="2777.5,-102 2771.5,-102 "/>
<text text-anchor="middle" x="2694.5" y="-86.3" font-family="Times,serif" font-size="14.00">var.ebs_device_name_hack</text>
</g>
<!-- [root] data.template_file.mount_ebs_volume_script (expand)&#45;&gt;[root] var.ebs_device_name_hack -->
<g id="edge32" class="edge">
<title>[root] data.template_file.mount_ebs_volume_script (expand)&#45;&gt;[root] var.ebs_device_name_hack</title>
<path fill="none" stroke="black" d="M2475.07,-143.97C2516.99,-133.85 2570.29,-120.98 2613.87,-110.46"/>
<polygon fill="black" stroke="black" points="2614.96,-113.8 2623.86,-108.05 2613.32,-106.99 2614.96,-113.8"/>
</g>
<!-- [root] var.mount_ebs_volume_script_path -->
<g id="node25" class="node">
<title>[root] var.mount_ebs_volume_script_path</title>
<polygon fill="none" stroke="black" points="2587.5,-108 2381.5,-108 2381.5,-72 2593.5,-72 2593.5,-102 2587.5,-108"/>
<polyline fill="none" stroke="black" points="2587.5,-108 2587.5,-102 "/>
<polyline fill="none" stroke="black" points="2593.5,-102 2587.5,-102 "/>
<text text-anchor="middle" x="2487.5" y="-86.3" font-family="Times,serif" font-size="14.00">var.mount_ebs_volume_script_path</text>
</g>
<!-- [root] data.template_file.mount_ebs_volume_script (expand)&#45;&gt;[root] var.mount_ebs_volume_script_path -->
<g id="edge33" class="edge">
<title>[root] data.template_file.mount_ebs_volume_script (expand)&#45;&gt;[root] var.mount_ebs_volume_script_path</title>
<path fill="none" stroke="black" d="M2425.02,-143.7C2435.37,-134.97 2448.09,-124.24 2459.34,-114.75"/>
<polygon fill="black" stroke="black" points="2461.83,-117.23 2467.22,-108.1 2457.32,-111.88 2461.83,-117.23"/>
</g>
<!-- [root] var.aws_region -->
<g id="node20" class="node">
<title>[root] var.aws_region</title>
<polygon fill="none" stroke="black" points="422,-36 329,-36 329,0 428,0 428,-30 422,-36"/>
<polyline fill="none" stroke="black" points="422,-36 422,-30 "/>
<polyline fill="none" stroke="black" points="428,-30 422,-30 "/>
<text text-anchor="middle" x="378.5" y="-14.3" font-family="Times,serif" font-size="14.00">var.aws_region</text>
</g>
<!-- [root] provider[&quot;registry.terraform.io/hashicorp/aws&quot;]&#45;&gt;[root] var.aws_region -->
<g id="edge42" class="edge">
<title>[root] provider[&quot;registry.terraform.io/hashicorp/aws&quot;]&#45;&gt;[root] var.aws_region</title>
<path fill="none" stroke="black" d="M378.5,-71.7C378.5,-63.98 378.5,-54.71 378.5,-46.11"/>
<polygon fill="black" stroke="black" points="382,-46.1 378.5,-36.1 375,-46.1 382,-46.1"/>
</g>
<!-- [root] var.env -->
<g id="node23" class="node">
<title>[root] var.env</title>
<polygon fill="none" stroke="black" points="909.5,-180 859.5,-180 859.5,-144 915.5,-144 915.5,-174 909.5,-180"/>
<polyline fill="none" stroke="black" points="909.5,-180 909.5,-174 "/>
<polyline fill="none" stroke="black" points="915.5,-174 909.5,-174 "/>
<text text-anchor="middle" x="887.5" y="-158.3" font-family="Times,serif" font-size="14.00">var.env</text>
</g>
<!-- [root] var.os -->
<g id="node26" class="node">
<title>[root] var.os</title>
<polygon fill="none" stroke="black" points="835.5,-180 787.5,-180 787.5,-144 841.5,-144 841.5,-174 835.5,-180"/>
<polyline fill="none" stroke="black" points="835.5,-180 835.5,-174 "/>
<polyline fill="none" stroke="black" points="841.5,-174 835.5,-174 "/>
<text text-anchor="middle" x="814.5" y="-158.3" font-family="Times,serif" font-size="14.00">var.os</text>
</g>
<!-- [root] local.name_prefix (expand)&#45;&gt;[root] var.env -->
<g id="edge34" class="edge">
<title>[root] local.name_prefix (expand)&#45;&gt;[root] var.env</title>
<path fill="none" stroke="black" d="M860.4,-215.7C864.5,-207.73 869.45,-198.1 873.99,-189.26"/>
<polygon fill="black" stroke="black" points="877.24,-190.6 878.7,-180.1 871.02,-187.4 877.24,-190.6"/>
</g>
<!-- [root] local.name_prefix (expand)&#45;&gt;[root] var.os -->
<g id="edge35" class="edge">
<title>[root] local.name_prefix (expand)&#45;&gt;[root] var.os</title>
<path fill="none" stroke="black" d="M842.35,-215.7C838.1,-207.64 832.94,-197.89 828.23,-188.98"/>
<polygon fill="black" stroke="black" points="831.31,-187.31 823.54,-180.1 825.12,-190.58 831.31,-187.31"/>
</g>
<!-- [root] meta.count&#45;boundary (EachMode fixup) -->
<g id="node32" class="node">
<title>[root] meta.count&#45;boundary (EachMode fixup)</title>
<ellipse fill="none" stroke="black" cx="923.5" cy="-450" rx="176.27" ry="18"/>
<text text-anchor="middle" x="923.5" y="-446.3" font-family="Times,serif" font-size="14.00">[root] meta.count&#45;boundary (EachMode fixup)</text>
</g>
<!-- [root] meta.count&#45;boundary (EachMode fixup)&#45;&gt;[root] aws_route_table_association.main_public&#45;1c (expand) -->
<g id="edge36" class="edge">
<title>[root] meta.count&#45;boundary (EachMode fixup)&#45;&gt;[root] aws_route_table_association.main_public&#45;1c (expand)</title>
<path fill="none" stroke="black" d="M852.93,-433.46C805.67,-423.06 743.12,-409.29 692.74,-398.2"/>
<polygon fill="black" stroke="black" points="693.36,-394.76 682.84,-396.02 691.85,-401.59 693.36,-394.76"/>
</g>
<!-- [root] meta.count&#45;boundary (EachMode fixup)&#45;&gt;[root] aws_volume_attachment.ebs_secondary (expand) -->
<g id="edge37" class="edge">
<title>[root] meta.count&#45;boundary (EachMode fixup)&#45;&gt;[root] aws_volume_attachment.ebs_secondary (expand)</title>
<path fill="none" stroke="black" d="M808.62,-436.28C718.39,-426.16 589.28,-411.37 466.73,-396.14"/>
<polygon fill="black" stroke="black" points="467.15,-392.67 456.79,-394.91 466.28,-399.61 467.15,-392.67"/>
</g>
<!-- [root] output.IP (expand) -->
<g id="node33" class="node">
<title>[root] output.IP (expand)</title>
<ellipse fill="none" stroke="black" cx="1017.5" cy="-378" rx="98.58" ry="18"/>
<text text-anchor="middle" x="1017.5" y="-374.3" font-family="Times,serif" font-size="14.00">[root] output.IP (expand)</text>
</g>
<!-- [root] meta.count&#45;boundary (EachMode fixup)&#45;&gt;[root] output.IP (expand) -->
<g id="edge38" class="edge">
<title>[root] meta.count&#45;boundary (EachMode fixup)&#45;&gt;[root] output.IP (expand)</title>
<path fill="none" stroke="black" d="M946.25,-432.05C958.47,-422.96 973.69,-411.63 986.92,-401.77"/>
<polygon fill="black" stroke="black" points="989.35,-404.33 995.28,-395.55 985.17,-398.71 989.35,-404.33"/>
</g>
<!-- [root] output.IP (expand)&#45;&gt;[root] aws_instance.ubuntu (expand) -->
<g id="edge39" class="edge">
<title>[root] output.IP (expand)&#45;&gt;[root] aws_instance.ubuntu (expand)</title>
<path fill="none" stroke="black" d="M1074.84,-363.25C1120.54,-352.3 1184.9,-336.87 1234.65,-324.94"/>
<polygon fill="black" stroke="black" points="1235.49,-328.34 1244.4,-322.61 1233.86,-321.53 1235.49,-328.34"/>
</g>
<!-- [root] provider[&quot;registry.terraform.io/hashicorp/aws&quot;] (close) -->
<g id="node34" class="node">
<title>[root] provider[&quot;registry.terraform.io/hashicorp/aws&quot;] (close)</title>
<ellipse fill="none" stroke="black" cx="501.5" cy="-450" rx="227.46" ry="18"/>
<text text-anchor="middle" x="501.5" y="-446.3" font-family="Times,serif" font-size="14.00">[root] provider[&quot;registry.terraform.io/hashicorp/aws&quot;] (close)</text>
</g>
<!-- [root] provider[&quot;registry.terraform.io/hashicorp/aws&quot;] (close)&#45;&gt;[root] aws_route_table_association.main_public&#45;1c (expand) -->
<g id="edge40" class="edge">
<title>[root] provider[&quot;registry.terraform.io/hashicorp/aws&quot;] (close)&#45;&gt;[root] aws_route_table_association.main_public&#45;1c (expand)</title>
<path fill="none" stroke="black" d="M526.68,-432.05C540.24,-422.92 557.17,-411.53 571.85,-401.65"/>
<polygon fill="black" stroke="black" points="573.85,-404.52 580.2,-396.03 569.95,-398.71 573.85,-404.52"/>
</g>
<!-- [root] provider[&quot;registry.terraform.io/hashicorp/aws&quot;] (close)&#45;&gt;[root] aws_volume_attachment.ebs_secondary (expand) -->
<g id="edge41" class="edge">
<title>[root] provider[&quot;registry.terraform.io/hashicorp/aws&quot;] (close)&#45;&gt;[root] aws_volume_attachment.ebs_secondary (expand)</title>
<path fill="none" stroke="black" d="M462.46,-432.23C440.01,-422.59 411.6,-410.39 387.64,-400.1"/>
<polygon fill="black" stroke="black" points="388.93,-396.85 378.36,-396.12 386.16,-403.28 388.93,-396.85"/>
</g>
<!-- [root] provider[&quot;registry.terraform.io/hashicorp/template&quot;] (close) -->
<g id="node35" class="node">
<title>[root] provider[&quot;registry.terraform.io/hashicorp/template&quot;] (close)</title>
<ellipse fill="none" stroke="black" cx="1999.5" cy="-450" rx="244.26" ry="18"/>
<text text-anchor="middle" x="1999.5" y="-446.3" font-family="Times,serif" font-size="14.00">[root] provider[&quot;registry.terraform.io/hashicorp/template&quot;] (close)</text>
</g>
<!-- [root] provider[&quot;registry.terraform.io/hashicorp/template&quot;] (close)&#45;&gt;[root] data.template_cloudinit_config.init_scripts (expand) -->
<g id="edge43" class="edge">
<title>[root] provider[&quot;registry.terraform.io/hashicorp/template&quot;] (close)&#45;&gt;[root] data.template_cloudinit_config.init_scripts (expand)</title>
<path fill="none" stroke="black" d="M2019.22,-431.85C2062.85,-393.89 2167.68,-302.7 2217.84,-259.06"/>
<polygon fill="black" stroke="black" points="2220.44,-261.44 2225.69,-252.23 2215.85,-256.16 2220.44,-261.44"/>
</g>
<!-- [root] provisioner.file (close) -->
<g id="node36" class="node">
<title>[root] provisioner.file (close)</title>
<ellipse fill="none" stroke="black" cx="1230.5" cy="-450" rx="112.38" ry="18"/>
<text text-anchor="middle" x="1230.5" y="-446.3" font-family="Times,serif" font-size="14.00">[root] provisioner.file (close)</text>
</g>
<!-- [root] provisioner.file (close)&#45;&gt;[root] aws_instance.ubuntu (expand) -->
<g id="edge44" class="edge">
<title>[root] provisioner.file (close)&#45;&gt;[root] aws_instance.ubuntu (expand)</title>
<path fill="none" stroke="black" d="M1228.88,-431.73C1227.92,-412.86 1228.83,-382.35 1241.5,-360 1248.21,-348.17 1258.72,-338.06 1269.49,-329.95"/>
<polygon fill="black" stroke="black" points="1271.57,-332.76 1277.71,-324.13 1267.53,-327.04 1271.57,-332.76"/>
</g>
<!-- [root] provisioner.remote&#45;exec (close) -->
<g id="node37" class="node">
<title>[root] provisioner.remote&#45;exec (close)</title>
<ellipse fill="none" stroke="black" cx="1396.5" cy="-378" rx="145.67" ry="18"/>
<text text-anchor="middle" x="1396.5" y="-374.3" font-family="Times,serif" font-size="14.00">[root] provisioner.remote&#45;exec (close)</text>
</g>
<!-- [root] provisioner.remote&#45;exec (close)&#45;&gt;[root] aws_instance.ubuntu (expand) -->
<g id="edge45" class="edge">
<title>[root] provisioner.remote&#45;exec (close)&#45;&gt;[root] aws_instance.ubuntu (expand)</title>
<path fill="none" stroke="black" d="M1375.44,-360.05C1364.41,-351.18 1350.72,-340.17 1338.69,-330.48"/>
<polygon fill="black" stroke="black" points="1340.65,-327.57 1330.67,-324.03 1336.26,-333.03 1340.65,-327.57"/>
</g>
<!-- [root] root -->
<g id="node38" class="node">
<title>[root] root</title>
<ellipse fill="none" stroke="black" cx="1230.5" cy="-522" rx="47.39" ry="18"/>
<text text-anchor="middle" x="1230.5" y="-518.3" font-family="Times,serif" font-size="14.00">[root] root</text>
</g>
<!-- [root] root&#45;&gt;[root] meta.count&#45;boundary (EachMode fixup) -->
<g id="edge46" class="edge">
<title>[root] root&#45;&gt;[root] meta.count&#45;boundary (EachMode fixup)</title>
<path fill="none" stroke="black" d="M1190.99,-511.99C1143.44,-501.15 1062.44,-482.68 1002.01,-468.9"/>
<polygon fill="black" stroke="black" points="1002.64,-465.46 992.11,-466.64 1001.08,-472.28 1002.64,-465.46"/>
</g>
<!-- [root] root&#45;&gt;[root] provider[&quot;registry.terraform.io/hashicorp/aws&quot;] (close) -->
<g id="edge47" class="edge">
<title>[root] root&#45;&gt;[root] provider[&quot;registry.terraform.io/hashicorp/aws&quot;] (close)</title>
<path fill="none" stroke="black" d="M1185.17,-516.65C1080.46,-506.59 817.91,-481.38 650.33,-465.29"/>
<polygon fill="black" stroke="black" points="650.47,-461.79 640.18,-464.32 649.8,-468.76 650.47,-461.79"/>
</g>
<!-- [root] root&#45;&gt;[root] provider[&quot;registry.terraform.io/hashicorp/template&quot;] (close) -->
<g id="edge48" class="edge">
<title>[root] root&#45;&gt;[root] provider[&quot;registry.terraform.io/hashicorp/template&quot;] (close)</title>
<path fill="none" stroke="black" d="M1276.02,-516.86C1384.87,-506.95 1664.4,-481.5 1842.41,-465.3"/>
<polygon fill="black" stroke="black" points="1842.76,-468.78 1852.4,-464.39 1842.12,-461.81 1842.76,-468.78"/>
</g>
<!-- [root] root&#45;&gt;[root] provisioner.file (close) -->
<g id="edge49" class="edge">
<title>[root] root&#45;&gt;[root] provisioner.file (close)</title>
<path fill="none" stroke="black" d="M1230.5,-503.7C1230.5,-495.98 1230.5,-486.71 1230.5,-478.11"/>
<polygon fill="black" stroke="black" points="1234,-478.1 1230.5,-468.1 1227,-478.1 1234,-478.1"/>
</g>
<!-- [root] root&#45;&gt;[root] provisioner.remote&#45;exec (close) -->
<g id="edge50" class="edge">
<title>[root] root&#45;&gt;[root] provisioner.remote&#45;exec (close)</title>
<path fill="none" stroke="black" d="M1269.27,-511.46C1295.15,-503.45 1328.51,-489.75 1351.5,-468 1369.49,-450.98 1381.43,-425.18 1388.46,-405.74"/>
<polygon fill="black" stroke="black" points="1391.79,-406.83 1391.69,-396.23 1385.16,-404.57 1391.79,-406.83"/>
</g>
</g>
</svg>
