<?xml version="1.0" encoding="UTF-8" standalone="no"?>
<!DOCTYPE svg PUBLIC "-//W3C//DTD SVG 1.1//EN"
 "http://www.w3.org/Graphics/SVG/1.1/DTD/svg11.dtd">
<!-- Generated by graphviz version 2.44.1 (20200629.0846)
 -->
<!-- Pages: 1 -->
<svg width="1902pt" height="548pt"
 viewBox="0.00 0.00 1902.14 548.00" xmlns="http://www.w3.org/2000/svg" xmlns:xlink="http://www.w3.org/1999/xlink">
<g id="graph0" class="graph" transform="scale(1 1) rotate(0) translate(4 544)">
<polygon fill="white" stroke="transparent" points="-4,4 -4,-544 1898.14,-544 1898.14,4 -4,4"/>
<!-- [root] aws_instance.ubuntu (expand) -->
<g id="node1" class="node">
<title>[root] aws_instance.ubuntu (expand)</title>
<polygon fill="none" stroke="black" points="1126.5,-324 996.5,-324 996.5,-288 1126.5,-288 1126.5,-324"/>
<text text-anchor="middle" x="1061.5" y="-302.3" font-family="Times,serif" font-size="14.00">aws_instance.ubuntu</text>
</g>
<!-- [root] aws_key_pair.ec2 (expand) -->
<g id="node3" class="node">
<title>[root] aws_key_pair.ec2 (expand)</title>
<polygon fill="none" stroke="black" points="1615,-252 1502,-252 1502,-216 1615,-216 1615,-252"/>
<text text-anchor="middle" x="1558.5" y="-230.3" font-family="Times,serif" font-size="14.00">aws_key_pair.ec2</text>
</g>
<!-- [root] aws_instance.ubuntu (expand)&#45;&gt;[root] aws_key_pair.ec2 (expand) -->
<g id="edge1" class="edge">
<title>[root] aws_instance.ubuntu (expand)&#45;&gt;[root] aws_key_pair.ec2 (expand)</title>
<path fill="none" stroke="black" d="M1126.53,-299.65C1209.19,-292.27 1356.39,-277.14 1491.6,-252.03"/>
<polygon fill="black" stroke="black" points="1492.54,-255.41 1501.72,-250.12 1491.25,-248.53 1492.54,-255.41"/>
</g>
<!-- [root] aws_security_group.allow_ssh (expand) -->
<g id="node6" class="node">
<title>[root] aws_security_group.allow_ssh (expand)</title>
<polygon fill="none" stroke="black" points="1218,-252 1035,-252 1035,-216 1218,-216 1218,-252"/>
<text text-anchor="middle" x="1126.5" y="-230.3" font-family="Times,serif" font-size="14.00">aws_security_group.allow_ssh</text>
</g>
<!-- [root] aws_instance.ubuntu (expand)&#45;&gt;[root] aws_security_group.allow_ssh (expand) -->
<g id="edge2" class="edge">
<title>[root] aws_instance.ubuntu (expand)&#45;&gt;[root] aws_security_group.allow_ssh (expand)</title>
<path fill="none" stroke="black" d="M1077.57,-287.7C1085.44,-279.22 1095.06,-268.86 1103.67,-259.58"/>
<polygon fill="black" stroke="black" points="1106.38,-261.81 1110.62,-252.1 1101.25,-257.05 1106.38,-261.81"/>
</g>
<!-- [root] aws_subnet.mainvpc_public_subnet (expand) -->
<g id="node7" class="node">
<title>[root] aws_subnet.mainvpc_public_subnet (expand)</title>
<polygon fill="none" stroke="black" points="422,-252 209,-252 209,-216 422,-216 422,-252"/>
<text text-anchor="middle" x="315.5" y="-230.3" font-family="Times,serif" font-size="14.00">aws_subnet.mainvpc_public_subnet</text>
</g>
<!-- [root] aws_instance.ubuntu (expand)&#45;&gt;[root] aws_subnet.mainvpc_public_subnet (expand) -->
<g id="edge3" class="edge">
<title>[root] aws_instance.ubuntu (expand)&#45;&gt;[root] aws_subnet.mainvpc_public_subnet (expand)</title>
<path fill="none" stroke="black" d="M996.42,-300.89C883.61,-293.47 644.25,-276.41 432.36,-252.18"/>
<polygon fill="black" stroke="black" points="432.62,-248.69 422.29,-251.02 431.82,-255.64 432.62,-248.69"/>
</g>
<!-- [root] var.aws_ami -->
<g id="node10" class="node">
<title>[root] var.aws_ami</title>
<polygon fill="none" stroke="black" points="1316.5,-252 1236.5,-252 1236.5,-216 1322.5,-216 1322.5,-246 1316.5,-252"/>
<polyline fill="none" stroke="black" points="1316.5,-252 1316.5,-246 "/>
<polyline fill="none" stroke="black" points="1322.5,-246 1316.5,-246 "/>
<text text-anchor="middle" x="1279.5" y="-230.3" font-family="Times,serif" font-size="14.00">var.aws_ami</text>
</g>
<!-- [root] aws_instance.ubuntu (expand)&#45;&gt;[root] var.aws_ami -->
<g id="edge7" class="edge">
<title>[root] aws_instance.ubuntu (expand)&#45;&gt;[root] var.aws_ami</title>
<path fill="none" stroke="black" d="M1114.55,-287.97C1148.62,-277.03 1192.69,-262.87 1226.71,-251.95"/>
<polygon fill="black" stroke="black" points="1228.02,-255.21 1236.47,-248.82 1225.88,-248.54 1228.02,-255.21"/>
</g>
<!-- [root] var.aws_ec2_username -->
<g id="node11" class="node">
<title>[root] var.aws_ec2_username</title>
<polygon fill="none" stroke="black" points="1478,-252 1341,-252 1341,-216 1484,-216 1484,-246 1478,-252"/>
<polyline fill="none" stroke="black" points="1478,-252 1478,-246 "/>
<polyline fill="none" stroke="black" points="1484,-246 1478,-246 "/>
<text text-anchor="middle" x="1412.5" y="-230.3" font-family="Times,serif" font-size="14.00">var.aws_ec2_username</text>
</g>
<!-- [root] aws_instance.ubuntu (expand)&#45;&gt;[root] var.aws_ec2_username -->
<g id="edge8" class="edge">
<title>[root] aws_instance.ubuntu (expand)&#45;&gt;[root] var.aws_ec2_username</title>
<path fill="none" stroke="black" d="M1126.74,-292.44C1179.11,-282.3 1254.79,-267.53 1330.73,-252.14"/>
<polygon fill="black" stroke="black" points="1331.85,-255.49 1340.96,-250.07 1330.46,-248.63 1331.85,-255.49"/>
</g>
<!-- [root] var.private_key_path -->
<g id="node15" class="node">
<title>[root] var.private_key_path</title>
<polygon fill="none" stroke="black" points="565,-252 440,-252 440,-216 571,-216 571,-246 565,-252"/>
<polyline fill="none" stroke="black" points="565,-252 565,-246 "/>
<polyline fill="none" stroke="black" points="571,-246 565,-246 "/>
<text text-anchor="middle" x="505.5" y="-230.3" font-family="Times,serif" font-size="14.00">var.private_key_path</text>
</g>
<!-- [root] aws_instance.ubuntu (expand)&#45;&gt;[root] var.private_key_path -->
<g id="edge9" class="edge">
<title>[root] aws_instance.ubuntu (expand)&#45;&gt;[root] var.private_key_path</title>
<path fill="none" stroke="black" d="M996.21,-300.16C905.4,-292.91 735.68,-277.47 581.4,-252.04"/>
<polygon fill="black" stroke="black" points="581.71,-248.54 571.27,-250.35 580.56,-255.45 581.71,-248.54"/>
</g>
<!-- [root] local.name_prefix (expand) -->
<g id="node17" class="node">
<title>[root] local.name_prefix (expand)</title>
<ellipse fill="none" stroke="black" cx="1763.5" cy="-234" rx="130.78" ry="18"/>
<text text-anchor="middle" x="1763.5" y="-230.3" font-family="Times,serif" font-size="14.00">[root] local.name_prefix (expand)</text>
</g>
<!-- [root] aws_instance.ubuntu (expand)&#45;&gt;[root] local.name_prefix (expand) -->
<g id="edge4" class="edge">
<title>[root] aws_instance.ubuntu (expand)&#45;&gt;[root] local.name_prefix (expand)</title>
<path fill="none" stroke="black" d="M1126.89,-299.41C1231.75,-290.31 1443.97,-271.36 1623.5,-252 1635.29,-250.73 1647.63,-249.33 1659.89,-247.9"/>
<polygon fill="black" stroke="black" points="1660.64,-251.33 1670.16,-246.69 1659.82,-244.38 1660.64,-251.33"/>
</g>
<!-- [root] provisioner.file -->
<g id="node18" class="node">
<title>[root] provisioner.file</title>
<ellipse fill="none" stroke="black" cx="675.5" cy="-234" rx="86.38" ry="18"/>
<text text-anchor="middle" x="675.5" y="-230.3" font-family="Times,serif" font-size="14.00">[root] provisioner.file</text>
</g>
<!-- [root] aws_instance.ubuntu (expand)&#45;&gt;[root] provisioner.file -->
<g id="edge5" class="edge">
<title>[root] aws_instance.ubuntu (expand)&#45;&gt;[root] provisioner.file</title>
<path fill="none" stroke="black" d="M996.46,-293.2C927.96,-280.78 820.31,-261.26 748.84,-248.3"/>
<polygon fill="black" stroke="black" points="749.03,-244.78 738.56,-246.44 747.78,-251.66 749.03,-244.78"/>
</g>
<!-- [root] provisioner.remote&#45;exec -->
<g id="node19" class="node">
<title>[root] provisioner.remote&#45;exec</title>
<ellipse fill="none" stroke="black" cx="898.5" cy="-234" rx="118.88" ry="18"/>
<text text-anchor="middle" x="898.5" y="-230.3" font-family="Times,serif" font-size="14.00">[root] provisioner.remote&#45;exec</text>
</g>
<!-- [root] aws_instance.ubuntu (expand)&#45;&gt;[root] provisioner.remote&#45;exec -->
<g id="edge6" class="edge">
<title>[root] aws_instance.ubuntu (expand)&#45;&gt;[root] provisioner.remote&#45;exec</title>
<path fill="none" stroke="black" d="M1021.63,-287.88C998.58,-277.98 969.46,-265.47 945.33,-255.11"/>
<polygon fill="black" stroke="black" points="946.57,-251.84 936,-251.11 943.81,-258.27 946.57,-251.84"/>
</g>
<!-- [root] aws_internet_gateway.main_gw (expand) -->
<g id="node2" class="node">
<title>[root] aws_internet_gateway.main_gw (expand)</title>
<polygon fill="none" stroke="black" points="191,-252 0,-252 0,-216 191,-216 191,-252"/>
<text text-anchor="middle" x="95.5" y="-230.3" font-family="Times,serif" font-size="14.00">aws_internet_gateway.main_gw</text>
</g>
<!-- [root] aws_vpc.mainvpc (expand) -->
<g id="node8" class="node">
<title>[root] aws_vpc.mainvpc (expand)</title>
<polygon fill="none" stroke="black" points="779,-180 664,-180 664,-144 779,-144 779,-180"/>
<text text-anchor="middle" x="721.5" y="-158.3" font-family="Times,serif" font-size="14.00">aws_vpc.mainvpc</text>
</g>
<!-- [root] aws_internet_gateway.main_gw (expand)&#45;&gt;[root] aws_vpc.mainvpc (expand) -->
<g id="edge10" class="edge">
<title>[root] aws_internet_gateway.main_gw (expand)&#45;&gt;[root] aws_vpc.mainvpc (expand)</title>
<path fill="none" stroke="black" d="M191.24,-217.13C194.02,-216.74 196.78,-216.36 199.5,-216 361.94,-194.5 553.83,-177.04 653.58,-168.57"/>
<polygon fill="black" stroke="black" points="654.15,-172.03 663.82,-167.7 653.56,-165.06 654.15,-172.03"/>
</g>
<!-- [root] provider[&quot;registry.terraform.io/hashicorp/aws&quot;] -->
<g id="node9" class="node">
<title>[root] provider[&quot;registry.terraform.io/hashicorp/aws&quot;]</title>
<polygon fill="none" stroke="black" points="937.5,-108 684.96,-90 937.5,-72 1190.04,-90 937.5,-108"/>
<text text-anchor="middle" x="937.5" y="-86.3" font-family="Times,serif" font-size="14.00">provider[&quot;registry.terraform.io/hashicorp/aws&quot;]</text>
</g>
<!-- [root] aws_key_pair.ec2 (expand)&#45;&gt;[root] provider[&quot;registry.terraform.io/hashicorp/aws&quot;] -->
<g id="edge11" class="edge">
<title>[root] aws_key_pair.ec2 (expand)&#45;&gt;[root] provider[&quot;registry.terraform.io/hashicorp/aws&quot;]</title>
<path fill="none" stroke="black" d="M1560.09,-215.98C1560.96,-195.55 1558.88,-161.83 1538.5,-144 1507.21,-116.62 1283.48,-102.81 1118.1,-96.28"/>
<polygon fill="black" stroke="black" points="1117.92,-92.77 1107.79,-95.88 1117.64,-99.76 1117.92,-92.77"/>
</g>
<!-- [root] var.public_key_path -->
<g id="node16" class="node">
<title>[root] var.public_key_path</title>
<polygon fill="none" stroke="black" points="1524,-180 1403,-180 1403,-144 1530,-144 1530,-174 1524,-180"/>
<polyline fill="none" stroke="black" points="1524,-180 1524,-174 "/>
<polyline fill="none" stroke="black" points="1530,-174 1524,-174 "/>
<text text-anchor="middle" x="1466.5" y="-158.3" font-family="Times,serif" font-size="14.00">var.public_key_path</text>
</g>
<!-- [root] aws_key_pair.ec2 (expand)&#45;&gt;[root] var.public_key_path -->
<g id="edge12" class="edge">
<title>[root] aws_key_pair.ec2 (expand)&#45;&gt;[root] var.public_key_path</title>
<path fill="none" stroke="black" d="M1535.76,-215.7C1524.06,-206.8 1509.64,-195.82 1496.99,-186.2"/>
<polygon fill="black" stroke="black" points="1499.06,-183.37 1488.98,-180.1 1494.82,-188.94 1499.06,-183.37"/>
</g>
<!-- [root] aws_route_table.main_public_route (expand) -->
<g id="node4" class="node">
<title>[root] aws_route_table.main_public_route (expand)</title>
<polygon fill="none" stroke="black" points="244.5,-324 32.5,-324 32.5,-288 244.5,-288 244.5,-324"/>
<text text-anchor="middle" x="138.5" y="-302.3" font-family="Times,serif" font-size="14.00">aws_route_table.main_public_route</text>
</g>
<!-- [root] aws_route_table.main_public_route (expand)&#45;&gt;[root] aws_internet_gateway.main_gw (expand) -->
<g id="edge13" class="edge">
<title>[root] aws_route_table.main_public_route (expand)&#45;&gt;[root] aws_internet_gateway.main_gw (expand)</title>
<path fill="none" stroke="black" d="M127.87,-287.7C122.87,-279.56 116.81,-269.69 111.29,-260.7"/>
<polygon fill="black" stroke="black" points="114.22,-258.79 106.01,-252.1 108.26,-262.46 114.22,-258.79"/>
</g>
<!-- [root] aws_route_table_association.main_public&#45;1c (expand) -->
<g id="node5" class="node">
<title>[root] aws_route_table_association.main_public&#45;1c (expand)</title>
<polygon fill="none" stroke="black" points="446,-396 185,-396 185,-360 446,-360 446,-396"/>
<text text-anchor="middle" x="315.5" y="-374.3" font-family="Times,serif" font-size="14.00">aws_route_table_association.main_public&#45;1c</text>
</g>
<!-- [root] aws_route_table_association.main_public&#45;1c (expand)&#45;&gt;[root] aws_route_table.main_public_route (expand) -->
<g id="edge14" class="edge">
<title>[root] aws_route_table_association.main_public&#45;1c (expand)&#45;&gt;[root] aws_route_table.main_public_route (expand)</title>
<path fill="none" stroke="black" d="M272.2,-359.88C247.79,-350.22 217.1,-338.09 191.29,-327.88"/>
<polygon fill="black" stroke="black" points="192.24,-324.49 181.66,-324.07 189.67,-331 192.24,-324.49"/>
</g>
<!-- [root] aws_route_table_association.main_public&#45;1c (expand)&#45;&gt;[root] aws_subnet.mainvpc_public_subnet (expand) -->
<g id="edge15" class="edge">
<title>[root] aws_route_table_association.main_public&#45;1c (expand)&#45;&gt;[root] aws_subnet.mainvpc_public_subnet (expand)</title>
<path fill="none" stroke="black" d="M315.5,-359.87C315.5,-335.67 315.5,-291.21 315.5,-262.39"/>
<polygon fill="black" stroke="black" points="319,-262.19 315.5,-252.19 312,-262.19 319,-262.19"/>
</g>
<!-- [root] aws_security_group.allow_ssh (expand)&#45;&gt;[root] aws_vpc.mainvpc (expand) -->
<g id="edge16" class="edge">
<title>[root] aws_security_group.allow_ssh (expand)&#45;&gt;[root] aws_vpc.mainvpc (expand)</title>
<path fill="none" stroke="black" d="M1034.85,-217.16C960.17,-204.25 856.4,-186.32 789.1,-174.68"/>
<polygon fill="black" stroke="black" points="789.48,-171.2 779.03,-172.94 788.29,-178.1 789.48,-171.2"/>
</g>
<!-- [root] aws_subnet.mainvpc_public_subnet (expand)&#45;&gt;[root] aws_vpc.mainvpc (expand) -->
<g id="edge17" class="edge">
<title>[root] aws_subnet.mainvpc_public_subnet (expand)&#45;&gt;[root] aws_vpc.mainvpc (expand)</title>
<path fill="none" stroke="black" d="M414.3,-215.97C488.49,-203.17 588.16,-185.99 653.58,-174.71"/>
<polygon fill="black" stroke="black" points="654.51,-178.1 663.77,-172.95 653.32,-171.2 654.51,-178.1"/>
</g>
<!-- [root] aws_vpc.mainvpc (expand)&#45;&gt;[root] provider[&quot;registry.terraform.io/hashicorp/aws&quot;] -->
<g id="edge18" class="edge">
<title>[root] aws_vpc.mainvpc (expand)&#45;&gt;[root] provider[&quot;registry.terraform.io/hashicorp/aws&quot;]</title>
<path fill="none" stroke="black" d="M774.06,-143.97C807.59,-133.1 850.9,-119.06 884.51,-108.17"/>
<polygon fill="black" stroke="black" points="885.73,-111.46 894.16,-105.04 883.57,-104.8 885.73,-111.46"/>
</g>
<!-- [root] var.aws_region -->
<g id="node12" class="node">
<title>[root] var.aws_region</title>
<polygon fill="none" stroke="black" points="981,-36 888,-36 888,0 987,0 987,-30 981,-36"/>
<polyline fill="none" stroke="black" points="981,-36 981,-30 "/>
<polyline fill="none" stroke="black" points="987,-30 981,-30 "/>
<text text-anchor="middle" x="937.5" y="-14.3" font-family="Times,serif" font-size="14.00">var.aws_region</text>
</g>
<!-- [root] provider[&quot;registry.terraform.io/hashicorp/aws&quot;]&#45;&gt;[root] var.aws_region -->
<g id="edge26" class="edge">
<title>[root] provider[&quot;registry.terraform.io/hashicorp/aws&quot;]&#45;&gt;[root] var.aws_region</title>
<path fill="none" stroke="black" d="M937.5,-71.7C937.5,-63.98 937.5,-54.71 937.5,-46.11"/>
<polygon fill="black" stroke="black" points="941,-46.1 937.5,-36.1 934,-46.1 941,-46.1"/>
</g>
<!-- [root] var.env -->
<g id="node13" class="node">
<title>[root] var.env</title>
<polygon fill="none" stroke="black" points="1821.5,-180 1771.5,-180 1771.5,-144 1827.5,-144 1827.5,-174 1821.5,-180"/>
<polyline fill="none" stroke="black" points="1821.5,-180 1821.5,-174 "/>
<polyline fill="none" stroke="black" points="1827.5,-174 1821.5,-174 "/>
<text text-anchor="middle" x="1799.5" y="-158.3" font-family="Times,serif" font-size="14.00">var.env</text>
</g>
<!-- [root] var.os -->
<g id="node14" class="node">
<title>[root] var.os</title>
<polygon fill="none" stroke="black" points="1747.5,-180 1699.5,-180 1699.5,-144 1753.5,-144 1753.5,-174 1747.5,-180"/>
<polyline fill="none" stroke="black" points="1747.5,-180 1747.5,-174 "/>
<polyline fill="none" stroke="black" points="1753.5,-174 1747.5,-174 "/>
<text text-anchor="middle" x="1726.5" y="-158.3" font-family="Times,serif" font-size="14.00">var.os</text>
</g>
<!-- [root] local.name_prefix (expand)&#45;&gt;[root] var.env -->
<g id="edge19" class="edge">
<title>[root] local.name_prefix (expand)&#45;&gt;[root] var.env</title>
<path fill="none" stroke="black" d="M1772.4,-215.7C1776.5,-207.73 1781.45,-198.1 1785.99,-189.26"/>
<polygon fill="black" stroke="black" points="1789.24,-190.6 1790.7,-180.1 1783.02,-187.4 1789.24,-190.6"/>
</g>
<!-- [root] local.name_prefix (expand)&#45;&gt;[root] var.os -->
<g id="edge20" class="edge">
<title>[root] local.name_prefix (expand)&#45;&gt;[root] var.os</title>
<path fill="none" stroke="black" d="M1754.35,-215.7C1750.1,-207.64 1744.94,-197.89 1740.23,-188.98"/>
<polygon fill="black" stroke="black" points="1743.31,-187.31 1735.54,-180.1 1737.12,-190.58 1743.31,-187.31"/>
</g>
<!-- [root] meta.count&#45;boundary (EachMode fixup) -->
<g id="node20" class="node">
<title>[root] meta.count&#45;boundary (EachMode fixup)</title>
<ellipse fill="none" stroke="black" cx="315.5" cy="-450" rx="176.27" ry="18"/>
<text text-anchor="middle" x="315.5" y="-446.3" font-family="Times,serif" font-size="14.00">[root] meta.count&#45;boundary (EachMode fixup)</text>
</g>
<!-- [root] meta.count&#45;boundary (EachMode fixup)&#45;&gt;[root] aws_route_table_association.main_public&#45;1c (expand) -->
<g id="edge21" class="edge">
<title>[root] meta.count&#45;boundary (EachMode fixup)&#45;&gt;[root] aws_route_table_association.main_public&#45;1c (expand)</title>
<path fill="none" stroke="black" d="M315.5,-431.7C315.5,-423.98 315.5,-414.71 315.5,-406.11"/>
<polygon fill="black" stroke="black" points="319,-406.1 315.5,-396.1 312,-406.1 319,-406.1"/>
</g>
<!-- [root] output.IP (expand) -->
<g id="node21" class="node">
<title>[root] output.IP (expand)</title>
<ellipse fill="none" stroke="black" cx="646.5" cy="-378" rx="98.58" ry="18"/>
<text text-anchor="middle" x="646.5" y="-374.3" font-family="Times,serif" font-size="14.00">[root] output.IP (expand)</text>
</g>
<!-- [root] meta.count&#45;boundary (EachMode fixup)&#45;&gt;[root] output.IP (expand) -->
<g id="edge22" class="edge">
<title>[root] meta.count&#45;boundary (EachMode fixup)&#45;&gt;[root] output.IP (expand)</title>
<path fill="none" stroke="black" d="M388.55,-433.55C443.93,-421.84 519.65,-405.83 574.72,-394.18"/>
<polygon fill="black" stroke="black" points="575.69,-397.55 584.75,-392.06 574.24,-390.7 575.69,-397.55"/>
</g>
<!-- [root] output.IP (expand)&#45;&gt;[root] aws_instance.ubuntu (expand) -->
<g id="edge23" class="edge">
<title>[root] output.IP (expand)&#45;&gt;[root] aws_instance.ubuntu (expand)</title>
<path fill="none" stroke="black" d="M716.43,-365.2C791.26,-352.58 909.54,-332.63 986.33,-319.68"/>
<polygon fill="black" stroke="black" points="987.14,-323.09 996.42,-317.98 985.98,-316.19 987.14,-323.09"/>
</g>
<!-- [root] provider[&quot;registry.terraform.io/hashicorp/aws&quot;] (close) -->
<g id="node22" class="node">
<title>[root] provider[&quot;registry.terraform.io/hashicorp/aws&quot;] (close)</title>
<ellipse fill="none" stroke="black" cx="737.5" cy="-450" rx="227.46" ry="18"/>
<text text-anchor="middle" x="737.5" y="-446.3" font-family="Times,serif" font-size="14.00">[root] provider[&quot;registry.terraform.io/hashicorp/aws&quot;] (close)</text>
</g>
<!-- [root] provider[&quot;registry.terraform.io/hashicorp/aws&quot;] (close)&#45;&gt;[root] aws_instance.ubuntu (expand) -->
<g id="edge24" class="edge">
<title>[root] provider[&quot;registry.terraform.io/hashicorp/aws&quot;] (close)&#45;&gt;[root] aws_instance.ubuntu (expand)</title>
<path fill="none" stroke="black" d="M775.94,-432.15C835.21,-406.18 948.82,-356.38 1013.44,-328.06"/>
<polygon fill="black" stroke="black" points="1014.85,-331.27 1022.61,-324.05 1012.04,-324.85 1014.85,-331.27"/>
</g>
<!-- [root] provider[&quot;registry.terraform.io/hashicorp/aws&quot;] (close)&#45;&gt;[root] aws_route_table_association.main_public&#45;1c (expand) -->
<g id="edge25" class="edge">
<title>[root] provider[&quot;registry.terraform.io/hashicorp/aws&quot;] (close)&#45;&gt;[root] aws_route_table_association.main_public&#45;1c (expand)</title>
<path fill="none" stroke="black" d="M644.37,-433.55C580.65,-422.98 495.81,-408.91 428.26,-397.7"/>
<polygon fill="black" stroke="black" points="428.44,-394.19 418,-396 427.3,-401.09 428.44,-394.19"/>
</g>
<!-- [root] provisioner.file (close) -->
<g id="node23" class="node">
<title>[root] provisioner.file (close)</title>
<ellipse fill="none" stroke="black" cx="1095.5" cy="-450" rx="112.38" ry="18"/>
<text text-anchor="middle" x="1095.5" y="-446.3" font-family="Times,serif" font-size="14.00">[root] provisioner.file (close)</text>
</g>
<!-- [root] provisioner.file (close)&#45;&gt;[root] aws_instance.ubuntu (expand) -->
<g id="edge27" class="edge">
<title>[root] provisioner.file (close)&#45;&gt;[root] aws_instance.ubuntu (expand)</title>
<path fill="none" stroke="black" d="M1090.35,-431.89C1087.31,-421.54 1083.49,-408.07 1080.5,-396 1075.4,-375.43 1070.43,-351.97 1066.85,-334.31"/>
<polygon fill="black" stroke="black" points="1070.21,-333.26 1064.81,-324.14 1063.34,-334.63 1070.21,-333.26"/>
</g>
<!-- [root] provisioner.remote&#45;exec (close) -->
<g id="node24" class="node">
<title>[root] provisioner.remote&#45;exec (close)</title>
<ellipse fill="none" stroke="black" cx="1235.5" cy="-378" rx="145.67" ry="18"/>
<text text-anchor="middle" x="1235.5" y="-374.3" font-family="Times,serif" font-size="14.00">[root] provisioner.remote&#45;exec (close)</text>
</g>
<!-- [root] provisioner.remote&#45;exec (close)&#45;&gt;[root] aws_instance.ubuntu (expand) -->
<g id="edge28" class="edge">
<title>[root] provisioner.remote&#45;exec (close)&#45;&gt;[root] aws_instance.ubuntu (expand)</title>
<path fill="none" stroke="black" d="M1194.7,-360.59C1170.37,-350.8 1139.24,-338.28 1113.2,-327.8"/>
<polygon fill="black" stroke="black" points="1114.44,-324.53 1103.86,-324.04 1111.83,-331.02 1114.44,-324.53"/>
</g>
<!-- [root] root -->
<g id="node25" class="node">
<title>[root] root</title>
<ellipse fill="none" stroke="black" cx="916.5" cy="-522" rx="47.39" ry="18"/>
<text text-anchor="middle" x="916.5" y="-518.3" font-family="Times,serif" font-size="14.00">[root] root</text>
</g>
<!-- [root] root&#45;&gt;[root] meta.count&#45;boundary (EachMode fixup) -->
<g id="edge29" class="edge">
<title>[root] root&#45;&gt;[root] meta.count&#45;boundary (EachMode fixup)</title>
<path fill="none" stroke="black" d="M871.82,-515.8C780.79,-505.19 571.12,-480.77 436.77,-465.12"/>
<polygon fill="black" stroke="black" points="437.16,-461.65 426.82,-463.97 436.35,-468.6 437.16,-461.65"/>
</g>
<!-- [root] root&#45;&gt;[root] provider[&quot;registry.terraform.io/hashicorp/aws&quot;] (close) -->
<g id="edge30" class="edge">
<title>[root] root&#45;&gt;[root] provider[&quot;registry.terraform.io/hashicorp/aws&quot;] (close)</title>
<path fill="none" stroke="black" d="M884.5,-508.49C858.27,-498.23 820.63,-483.51 790,-471.53"/>
<polygon fill="black" stroke="black" points="790.91,-468.13 780.33,-467.75 788.37,-474.65 790.91,-468.13"/>
</g>
<!-- [root] root&#45;&gt;[root] provisioner.file (close) -->
<g id="edge31" class="edge">
<title>[root] root&#45;&gt;[root] provisioner.file (close)</title>
<path fill="none" stroke="black" d="M948.5,-508.49C975.48,-497.94 1014.54,-482.66 1045.61,-470.51"/>
<polygon fill="black" stroke="black" points="1046.94,-473.75 1054.98,-466.85 1044.39,-467.23 1046.94,-473.75"/>
</g>
<!-- [root] root&#45;&gt;[root] provisioner.remote&#45;exec (close) -->
<g id="edge32" class="edge">
<title>[root] root&#45;&gt;[root] provisioner.remote&#45;exec (close)</title>
<path fill="none" stroke="black" d="M963.28,-518.96C1038.39,-514.69 1181.06,-502.2 1216.5,-468 1232.88,-452.19 1236.84,-425.98 1237.17,-406.09"/>
<polygon fill="black" stroke="black" points="1240.67,-406.03 1237.05,-396.07 1233.67,-406.11 1240.67,-406.03"/>
</g>
</g>
</svg>
